<svg width="1927" height="650" viewBox="0 0 1927 650" fill="none" xmlns="http://www.w3.org/2000/svg">
<rect width="1927" height="650" fill="#141A51"/>
<mask id="mask0_1278_12" style="mask-type:alpha" maskUnits="userSpaceOnUse" x="0" y="0" width="1927" height="650">
<rect width="1927" height="650" fill="url(#paint0_linear_1278_12)"/>
</mask>
<g mask="url(#mask0_1278_12)">
<path d="M-261.205 180.795C-191.334 93.2984 -106.797 -53.5607 21.3802 -34.1986C68.7196 -26.7194 104.034 14.5194 108.167 61.4485C113.951 126.177 87.2626 183.062 64.1891 243.57C34.1051 317.266 -2.60025 388.154 -38.7585 459.341C-78.0449 542.241 -135.995 631.484 -124.285 726.317C-111.995 818.865 -9.37197 853.271 66.3309 812.103C197.044 717.096 378.147 494.661 494.701 392.419C530.736 363.406 586.325 370.504 610.911 413.495C632.384 452.381 625.648 501.569 613.802 541.39C579.314 649.297 505.4 817.866 491.928 924.047C479.708 996.718 533.704 1042.73 599.491 1054.65C730.103 1074.66 896.929 942.475 992.494 862.174C1067.55 795.785 1135.46 719.673 1198.71 639.293C1316.99 482.123 1396.32 330.698 1317.95 231.062C1286.49 190.828 1225.58 160.856 1171.18 168.009C1065.6 177.121 1009.33 270.984 984.286 366.294C959.906 450.435 951.036 536.739 961.401 623.771C992.176 898.492 1208.32 993.685 1389.88 762.857" stroke="white" stroke-opacity="0.07" stroke-width="90" stroke-miterlimit="10" stroke-linecap="round"/>
</g>
<defs>
<linearGradient id="paint0_linear_1278_12" x1="30" y1="60.5" x2="1876" y2="631" gradientUnits="userSpaceOnUse">
<stop stop-color="#141A51" offset=""/>
<stop offset="1" stop-color="#9BA3E5"/>
</linearGradient>
</defs>
</svg>
